<?xml version="1.0" encoding="UTF-8" standalone="no"?>
<svg
   xmlns:dc="http://purl.org/dc/elements/1.1/"
   xmlns:cc="http://creativecommons.org/ns#"
   xmlns:rdf="http://www.w3.org/1999/02/22-rdf-syntax-ns#"
   xmlns:svg="http://www.w3.org/2000/svg"
   xmlns="http://www.w3.org/2000/svg"
   xmlns:sodipodi="http://sodipodi.sourceforge.net/DTD/sodipodi-0.dtd"
   xmlns:inkscape="http://www.inkscape.org/namespaces/inkscape"
   width="264"
   height="88"
   viewBox="0 0 264 88"
   id="svg2"
   version="1.1"
   inkscape:version="0.91 r13725"
   sodipodi:docname="default-skin.svg">
  <metadata
     id="metadata45">
    <rdf:RDF>
      <cc:Work
         rdf:about="">
        <dc:format>image/svg+xml</dc:format>
        <dc:type
           rdf:resource="http://purl.org/dc/dcmitype/StillImage" />
        <dc:title>default-skin 2</dc:title>
      </cc:Work>
    </rdf:RDF>
  </metadata>
  <defs
     id="defs43" />
  <sodipodi:namedview
     pagecolor="#ffffff"
     bordercolor="#666666"
     borderopacity="1"
     objecttolerance="10"
     gridtolerance="10"
     guidetolerance="10"
     inkscape:pageopacity="0"
     inkscape:pageshadow="2"
     inkscape:window-width="1920"
     inkscape:window-height="1017"
     id="namedview41"
     showgrid="false"
     inkscape:zoom="6.1711137"
     inkscape:cx="122.25416"
     inkscape:cy="29.378931"
     inkscape:window-x="-8"
     inkscape:window-y="-8"
     inkscape:window-maximized="1"
     inkscape:current-layer="svg2" />
  <title
     id="title4">default-skin 2</title>
  <g
     id="g3357"
     style="stroke:none;fill:#ffffff">
    <g
       style="fill:#ffffff;stroke:none"
       id="g6"
       fill-rule="evenodd"
       fill="none">
      <g
         style="fill:#ffffff;stroke:none"
         id="g8">
        <path
           style="fill:#ffffff;stroke:none"
           fill="#fff"
           id="Shape"
           d="M67.002 59.5v3.768c-6.307.84-9.184 5.75-10.002 9.732 2.22-2.83 5.564-5.098 10.002-5.098V71.5L73 65.585 67.002 59.5z" />
        <g
           style="fill:#ffffff;stroke:none"
           id="g11"
           fill="#fff">
          <path
             style="fill:#ffffff;stroke:none"
             id="path13"
             d="M13 29v-5h2v3h3v2h-5zM13 15h5v2h-3v3h-2v-5zM31 15v5h-2v-3h-3v-2h5zM31 29h-5v-2h3v-3h2v5z" />
        </g>
        <g
           style="fill:#ffffff;stroke:none"
           id="g15"
           fill="#fff">
          <path
             style="fill:#ffffff;stroke:none"
             id="path17"
             d="M62 24v5h-2v-3h-3v-2h5zM62 20h-5v-2h3v-3h2v5zM70 20v-5h2v3h3v2h-5zM70 24h5v2h-3v3h-2v-5z" />
        </g>
        <path
           style="fill:#ffffff;stroke:none"
           id="path19"
           fill="#fff"
           d="M20.586 66l-5.656-5.656 1.414-1.414L22 64.586l5.656-5.656 1.414 1.414L23.414 66l5.656 5.656-1.414 1.414L22 67.414l-5.656 5.656-1.414-1.414L20.586 66z" />
        <path
           style="fill:#ffffff;stroke:none"
           id="path21"
           fill="#fff"
           d="M111.785 65.03L110 63.5l3-3.5h-10v-2h10l-3-3.5 1.785-1.468L117 59l-5.215 6.03z" />
        <path
           style="fill:#ffffff;stroke:none"
           id="path23"
           fill="#fff"
           d="M152.215 65.03L154 63.5l-3-3.5h10v-2h-10l3-3.5-1.785-1.468L147 59l5.215 6.03z" />
        <g
           style="fill:#ffffff;stroke:none"
           id="g25">
          <path
             style="fill:#ffffff;stroke:none"
             d="M160.957 28.543l-3.25-3.25-1.413 1.414 3.25 3.25z"
             fill="#fff"
             id="Rectangle-11" />
          <path
             style="fill:none;stroke:#ffffff"
             stroke-width="1.5"
             stroke="#fff"
             id="Oval-1"
             d="M152.5 27c3.038 0 5.5-2.462 5.5-5.5s-2.462-5.5-5.5-5.5-5.5 2.462-5.5 5.5 2.462 5.5 5.5 5.5z" />
          <path
             style="fill:#ffffff;stroke:none"
             id="path29"
             d="M150 21h5v1h-5z"
             fill="#fff" />
        </g>
        <g
           style="fill:#ffffff;stroke:none"
           id="g31">
          <path
             style="fill:#ffffff;stroke:none"
             id="path33"
             fill="#fff"
             d="M116.957 28.543l-1.414 1.414-3.25-3.25 1.414-1.414 3.25 3.25z" />
          <path
             style="fill:none;stroke:#ffffff"
             stroke="#fff"
             stroke-width="1.5"
             id="path35"
             d="M108.5 27c3.038 0 5.5-2.462 5.5-5.5s-2.462-5.5-5.5-5.5-5.5 2.462-5.5 5.5 2.462 5.5 5.5 5.5z" />
          <path
             style="fill:#ffffff;stroke:none"
             id="path37"
             d="M106 21h5v1h-5z"
             fill="#fff" />
          <path
             style="fill:#ffffff;stroke:none"
             id="path39"
             d="M109.043 19.008l-.085 5-1-.017.085-5z"
             fill="#fff" />
        </g>
      </g>
    </g>
    <path
       sodipodi:nodetypes="cccc"
       inkscape:connector-curvature="0"
       id="path3373"
       d="m 189,13 0,18 18,-9 z"
       style="fill:#ffffff;fill-rule:evenodd;stroke:none;stroke-width:1px;stroke-linecap:butt;stroke-linejoin:miter;stroke-opacity:1" />
    <rect
       y="57"
       x="189"
       height="18"
       width="6"
       id="rect3375"
       style="fill:#ffffff;stroke:none" />
    <rect
       y="57"
       x="201"
       height="18"
       width="6"
       id="rect3377"
       style="fill:#ffffff;stroke:none" />
  </g>
</svg>
